<?xml version="1.0" standalone="no"?>
<!DOCTYPE svg PUBLIC "-//W3C//DTD SVG 20010904//EN"
 "http://www.w3.org/TR/2001/REC-SVG-20010904/DTD/svg10.dtd">
<svg version="1.0" xmlns="http://www.w3.org/2000/svg"
 width="2048.000000pt" height="1143.000000pt" viewBox="0 0 2048.000000 1143.000000"
 preserveAspectRatio="xMidYMid meet">
<metadata>
Created by potrace 1.16, written by Peter Selinger 2001-2019
</metadata>
<g transform="translate(0.000000,1143.000000) scale(0.100000,-0.100000)"
fill="#000000" stroke="none">
<path d="M0 5715 l0 -5715 10240 0 10240 0 0 5715 0 5715 -10240 0 -10240 0 0
-5715z m11903 4750 c90 -36 164 -104 209 -192 49 -96 61 -148 56 -247 -4 -72
-10 -96 -41 -159 -60 -121 -159 -201 -727 -582 -398 -267 -583 -405 -910 -680
-333 -281 -755 -700 -1016 -1010 -599 -712 -1064 -1475 -1329 -2181 -29 -78
-63 -161 -76 -185 -57 -114 -161 -193 -294 -225 -114 -26 -229 -3 -335 67 -77
52 -135 128 -167 221 -23 67 -25 81 -19 183 4 60 11 146 16 190 58 507 87
1419 55 1700 -15 133 -34 235 -43 235 -18 0 -670 -510 -921 -720 -63 -52 -132
-110 -155 -128 -23 -19 -144 -129 -271 -245 -376 -345 -887 -862 -1094 -1108
-321 -380 -411 -492 -557 -689 -431 -582 -706 -1037 -995 -1645 -109 -231
-261 -622 -317 -820 -11 -38 -34 -119 -51 -180 -93 -332 -153 -704 -170 -1070
-7 -134 -13 -181 -29 -224 -51 -132 -155 -232 -279 -271 -202 -62 -408 27
-504 218 l-34 67 0 155 c1 143 8 231 51 580 33 279 100 598 181 860 48 158
142 436 163 485 10 22 31 74 48 115 31 80 118 278 198 450 135 295 420 812
564 1025 15 22 80 119 144 215 128 192 319 457 423 590 272 345 321 404 553
665 355 400 704 754 1060 1079 102 93 208 190 235 216 28 25 84 75 126 111 42
35 130 109 195 165 214 181 564 457 824 650 439 326 516 382 784 565 460 312
533 364 556 389 29 33 302 203 505 314 716 393 1696 762 2590 976 72 17 164
39 205 50 64 16 182 37 305 54 17 2 73 3 125 1 76 -2 108 -8 163 -30z m6755
-300 c92 -12 185 -83 222 -168 30 -68 38 -189 17 -272 -8 -33 -38 -125 -65
-205 -28 -80 -78 -230 -111 -333 -63 -194 -115 -335 -156 -422 -158 -336 -233
-480 -353 -675 -429 -699 -926 -1256 -1846 -2071 -71 -63 -143 -125 -160 -138
-17 -14 -54 -45 -82 -70 -53 -49 -245 -208 -429 -357 -60 -48 -209 -164 -330
-257 -121 -92 -242 -185 -270 -207 -188 -145 -720 -531 -983 -713 -70 -48
-147 -102 -172 -119 -25 -17 -119 -81 -210 -141 -91 -60 -244 -162 -340 -227
-574 -384 -1488 -958 -1815 -1140 -33 -19 -112 -63 -175 -98 -552 -310 -1306
-691 -1735 -877 -71 -31 -168 -75 -215 -97 -155 -73 -216 -91 -315 -92 -76 -1
-98 3 -140 24 -102 50 -185 169 -185 268 0 71 -6 70 -166 -32 -342 -217 -650
-384 -799 -433 -112 -37 -211 -37 -281 -1 -72 38 -109 71 -143 131 -88 154
-58 295 89 414 64 52 291 207 340 233 28 14 319 195 538 334 79 50 157 100
175 110 82 50 522 345 607 407 52 38 133 97 180 131 360 260 668 585 846 894
96 166 114 249 118 548 2 120 8 235 16 266 28 125 144 281 291 391 75 55 251
143 319 158 81 19 222 13 297 -11 89 -29 181 -93 215 -149 61 -99 80 -264 53
-463 -18 -130 -18 -166 1 -531 6 -128 -16 -327 -57 -502 -24 -104 -85 -296
-111 -346 -11 -22 -17 -42 -14 -45 10 -9 5 -12 639 379 550 339 1063 692 1722
1185 543 406 804 606 1140 873 163 129 838 692 860 716 10 11 127 114 195 171
19 16 57 49 85 74 27 25 86 77 130 115 414 361 955 894 1184 1169 123 147 340
458 441 631 263 452 329 592 414 875 14 47 35 129 46 184 58 267 144 436 252
492 35 18 117 33 158 28 14 -2 45 -6 68 -9z"/>
<path d="M10130 9395 c-25 -13 -53 -24 -63 -25 -23 0 -141 -49 -297 -122 -25
-12 -58 -34 -75 -49 -16 -16 -118 -76 -225 -134 -265 -145 -421 -239 -715
-434 -299 -197 -753 -507 -777 -530 -17 -15 -16 -21 22 -97 87 -177 122 -327
141 -608 7 -97 16 -175 21 -174 4 2 74 96 155 209 294 411 528 694 863 1049
141 149 379 384 481 476 146 132 280 247 394 339 66 53 127 103 135 111 23 23
-7 17 -60 -11z"/>
<path d="M10471 3208 c-194 -222 -472 -484 -749 -707 -57 -46 -101 -85 -99
-88 4 -4 52 16 327 137 263 115 731 347 779 387 3 2 -22 32 -55 66 -87 90
-107 128 -118 231 -3 27 -7 50 -9 52 -2 3 -37 -33 -76 -78z"/>
</g>
</svg>
